<svg width="376" height="115" viewBox="0 0 376 115" fill="none" xmlns="http://www.w3.org/2000/svg">
<path d="M55.272 76V31.2H71.144C74.6853 31.2 77.4693 31.776 79.496 32.928C81.5227 34.0587 82.9627 35.5307 83.816 37.344C84.6693 39.1573 85.096 41.056 85.096 43.04C85.096 45.088 84.52 46.9333 83.368 48.576C82.216 50.2187 80.5947 51.488 78.504 52.384C80.232 52.9173 81.704 53.7067 82.92 54.752C84.1573 55.776 85.096 57.0027 85.736 58.432C86.376 59.8613 86.696 61.4293 86.696 63.136C86.696 64.6507 86.4507 66.1653 85.96 67.68C85.4693 69.1947 84.6587 70.5813 83.528 71.84C82.4187 73.0987 80.9253 74.112 79.048 74.88C77.192 75.6267 74.8987 76 72.168 76H55.272ZM60.84 70.88H72.808C75.0053 70.88 76.712 70.5173 77.928 69.792C79.144 69.0667 79.9867 68.1387 80.456 67.008C80.9467 65.8773 81.192 64.7147 81.192 63.52C81.192 62.0907 80.904 60.7467 80.328 59.488C79.752 58.2293 78.7067 57.216 77.192 56.448C75.6987 55.6587 73.5547 55.264 70.76 55.264H60.84V70.88ZM60.84 50.208H70.056C73.2347 50.208 75.6133 49.5573 77.192 48.256C78.792 46.9547 79.592 45.2373 79.592 43.104C79.592 42.016 79.3787 40.9493 78.952 39.904C78.5467 38.8373 77.7573 37.9627 76.584 37.28C75.4107 36.5973 73.704 36.256 71.464 36.256H60.84V50.208ZM109.419 76.768C104.939 76.768 101.408 75.2427 98.8265 72.192C96.2452 69.12 94.9545 64.9493 94.9545 59.68C94.9545 56.16 95.5412 53.12 96.7145 50.56C97.8878 48 99.5518 46.0267 101.707 44.64C103.883 43.232 106.453 42.528 109.419 42.528C112.405 42.528 114.976 43.2213 117.131 44.608C119.307 45.9733 120.971 47.936 122.123 50.496C123.296 53.056 123.882 56.096 123.882 59.616C123.882 63.136 123.296 66.1867 122.123 68.768C120.949 71.328 119.275 73.3013 117.099 74.688C114.944 76.0747 112.384 76.768 109.419 76.768ZM109.419 71.584C112.171 71.584 114.325 70.528 115.883 68.416C117.461 66.2827 118.251 63.3493 118.251 59.616C118.251 55.8613 117.461 52.928 115.883 50.816C114.325 48.704 112.171 47.648 109.419 47.648C106.645 47.648 104.48 48.704 102.923 50.816C101.365 52.9067 100.587 55.8613 100.587 59.68C100.587 63.4133 101.365 66.336 102.923 68.448C104.48 70.5387 106.645 71.584 109.419 71.584ZM144.146 76.768C140.114 76.768 137.117 75.5733 135.154 73.184C133.213 70.7947 132.242 67.1253 132.242 62.176V43.296H137.81V63.008C137.81 65.7813 138.418 67.904 139.634 69.376C140.85 70.848 142.589 71.584 144.85 71.584C147.346 71.584 149.223 70.8693 150.482 69.44C151.762 68.0107 152.402 65.9093 152.402 63.136V43.296H157.97V76H152.402V72.864C151.357 74.208 150.173 75.2 148.85 75.84C147.549 76.4587 145.981 76.768 144.146 76.768ZM169.062 76V43.296H174.63V46.624C175.633 45.2373 176.838 44.2133 178.246 43.552C179.654 42.8693 181.265 42.528 183.078 42.528C187.046 42.528 189.99 43.7333 191.91 46.144C193.83 48.5333 194.79 52.2133 194.79 57.184V76H189.222V56.224C189.222 53.472 188.603 51.36 187.366 49.888C186.15 48.3947 184.422 47.648 182.182 47.648C179.686 47.648 177.798 48.3627 176.518 49.792C175.259 51.2 174.63 53.3013 174.63 56.096V76H169.062ZM217.646 76.768C213.486 76.768 210.19 75.232 207.758 72.16C205.347 69.0667 204.142 64.8853 204.142 59.616C204.142 56.1173 204.686 53.088 205.774 50.528C206.883 47.968 208.441 45.9947 210.446 44.608C212.473 43.2213 214.873 42.528 217.646 42.528C220.846 42.528 223.598 43.552 225.902 45.6V32.416L231.47 29.792V76H225.902V73.44C223.747 75.6587 220.995 76.768 217.646 76.768ZM218.414 71.584C219.95 71.584 221.369 71.2 222.67 70.432C223.993 69.664 225.07 68.576 225.902 67.168V51.808C225.07 50.528 223.993 49.5147 222.67 48.768C221.347 48.0213 219.929 47.648 218.414 47.648C215.662 47.648 213.529 48.6827 212.014 50.752C210.521 52.8213 209.774 55.776 209.774 59.616C209.774 61.984 210.137 64.064 210.862 65.856C211.587 67.648 212.601 69.056 213.902 70.08C215.203 71.0827 216.707 71.584 218.414 71.584ZM251.472 76.768C247.93 76.768 245.146 75.7867 243.12 73.824C241.093 71.8613 240.08 69.1733 240.08 65.76C240.08 63.5627 240.581 61.6533 241.584 60.032C242.586 58.4107 244.005 57.1627 245.84 56.288C247.674 55.392 249.829 54.944 252.304 54.944C253.904 54.944 255.397 55.1253 256.784 55.488C258.192 55.8293 259.514 56.352 260.752 57.056V54.752C260.752 52.2133 260.176 50.3573 259.024 49.184C257.872 47.9893 256.08 47.392 253.648 47.392C252.09 47.392 250.469 47.68 248.784 48.256C247.12 48.832 245.562 49.632 244.112 50.656L242.512 45.984C244.154 44.896 246.021 44.0533 248.112 43.456C250.224 42.8373 252.304 42.528 254.352 42.528C258.234 42.528 261.146 43.52 263.088 45.504C265.029 47.4667 266 50.4 266 54.304V76H260.752V72.992C259.472 74.208 258.032 75.1467 256.432 75.808C254.832 76.448 253.178 76.768 251.472 76.768ZM252.304 71.904C253.818 71.904 255.312 71.5307 256.784 70.784C258.277 70.0373 259.6 68.9813 260.752 67.616V61.984C259.664 61.3013 258.426 60.768 257.04 60.384C255.653 60 254.33 59.808 253.072 59.808C250.682 59.808 248.794 60.352 247.408 61.44C246.021 62.5067 245.328 63.968 245.328 65.824C245.328 67.7013 245.946 69.184 247.184 70.272C248.421 71.36 250.128 71.904 252.304 71.904ZM276.5 76V43.296H282.068V47.584C282.814 45.92 283.838 44.6613 285.14 43.808C286.462 42.9547 288.02 42.528 289.812 42.528C291.796 42.528 293.481 43.0827 294.868 44.192L294.036 49.44C293.332 48.9493 292.596 48.5973 291.828 48.384C291.081 48.1493 290.26 48.032 289.364 48.032C287.892 48.032 286.612 48.4267 285.524 49.216C284.436 50.0053 283.582 51.1147 282.964 52.544C282.366 53.9733 282.068 55.648 282.068 57.568V76H276.5ZM305.809 88.416L310.801 75.168L298.705 43.296H304.273L312.401 65.568C312.636 66.144 312.828 66.6667 312.977 67.136C313.126 67.6053 313.276 68.128 313.425 68.704C313.596 68.128 313.756 67.6053 313.905 67.136C314.054 66.6667 314.236 66.144 314.449 65.568L322.705 43.296H328.401L311.441 88.416H305.809Z" fill="white"/>
<path d="M20.5096 19.5096V92.4904" stroke="white" stroke-width="9.01925" stroke-linecap="square"/>
<path d="M355.49 92.4904V19.5096" stroke="white" stroke-width="9.01925" stroke-linecap="square"/>
</svg>
